<svg width="263" height="261" viewBox="0 0 263 261" fill="none" xmlns="http://www.w3.org/2000/svg">
<path d="M102.302 195.127L97.571 193.283C95.0126 192.286 92.298 191.749 89.5526 191.697C87.4678 191.657 85.387 191.898 83.3662 192.412L68.0863 196.299L55.7397 198.955C53.7082 199.392 51.5884 198.872 49.99 197.544C48.7287 196.496 47.8905 195.026 47.6312 193.407L39.4731 142.472L29.6246 89.8417C29.3095 88.158 29.8019 86.424 30.9547 85.1571C31.8739 84.1471 33.1378 83.5177 34.4978 83.3928L50.6062 81.9135C54.8171 81.5269 58.8388 79.9828 62.2266 77.4522C64.3071 75.8981 66.6367 74.7089 69.1157 73.9353L69.6101 73.781C72.2696 72.9512 75.0453 72.5551 77.8308 72.6079L80.0058 72.6491L87.2978 72.7875L95.5087 72.9432C95.806 72.9488 96.1008 72.9978 96.3838 73.0885L99.4526 74.0719C101.25 74.6479 102.751 72.6119 101.669 71.0653C101.537 70.876 101.439 70.6649 101.379 70.4416L100.519 67.2016C100.02 65.3236 99.7857 63.3852 99.8225 61.4425L99.831 60.9952C99.8912 57.8211 100.647 54.6989 102.045 51.8486L102.448 51.0267C102.975 49.9515 103.635 48.9464 104.411 48.0345C106.379 45.7225 109.028 44.092 111.978 43.3759L113.662 42.9672C115.308 42.5677 116.998 42.3818 118.692 42.4139L119.077 42.4212C121.357 42.4644 123.612 42.8988 125.744 43.7054L125.923 43.7731C127.867 44.5085 129.675 45.5618 131.274 46.89L131.808 47.334C132.829 48.1819 133.723 49.1714 134.464 50.2723C135.768 52.21 136.563 54.4444 136.778 56.7701L137.144 60.747C137.186 61.2058 137.174 61.668 137.108 62.124L136.483 66.4488C136.31 67.6465 137.226 68.7248 138.436 68.7477L181.913 72.0772L219.941 74.9895C222.999 75.2237 225.344 77.8032 225.285 80.8699L224.905 100.901L224.854 103.627C224.792 106.899 222.089 109.501 218.817 109.439L212.892 109.327C207.335 108.969 202.519 113.137 202.076 118.688L201.412 127.025C200.843 134.162 204.402 140.996 210.576 144.621L235.888 159.482C236.298 159.723 236.547 160.167 236.538 160.643C236.526 161.258 236.091 161.783 235.489 161.908L227.056 163.666C222.995 164.513 219.69 167.453 218.377 171.388L216.042 178.381C215.817 179.056 215.18 179.506 214.469 179.492C213.812 179.48 213.228 179.074 212.987 178.464L209.658 170.037C206.975 163.245 197.075 164.213 195.758 171.395L193.697 186.892C193.329 189.652 191.457 191.979 188.839 192.928C187.717 193.335 186.513 193.467 185.329 193.313L154.387 189.283C151.704 189.232 149.06 189.923 146.746 191.281L143.56 193.149C138.82 195.929 133.018 196.209 128.033 193.898L127.599 193.697C123.198 191.656 118.103 191.754 113.783 193.961L112.87 194.428C109.593 196.103 105.771 196.355 102.302 195.127Z" fill="black" stroke="black" stroke-width="40"/>
<path d="M187.522 191.106L157.656 188.811L157.376 188.775C155.557 188.54 154.357 186.822 154.574 185.144L160.706 104.784L137.594 103.078C135.635 102.824 134.136 101.21 134.372 99.3925L136.459 73.3694L136.495 73.0898C136.712 71.4124 138.292 70.1953 140.13 70.2905L222.273 76.4962C224.092 76.7312 225.73 78.3641 225.477 80.3211L223.425 106.065C223.19 107.882 221.574 109.378 219.597 109.265L197.342 107.527L191.192 188.027L191.174 188.167C190.939 189.984 189.219 191.183 187.522 191.106Z" fill="#38D4AF"/>
<path d="M81.3169 191.747L81.0553 191.808L53.2465 196.857C51.6459 197.097 50.3212 196.168 49.9501 194.6L30.8529 89.9771C30.5436 88.6704 31.4426 87.2165 32.8814 86.8767L33.143 86.8149L57.3583 82.339C62.1884 79.4049 67.204 77.2548 72.3054 76.0503C96.5039 70.3366 122.585 83.08 128.553 108.298C134.273 132.472 121.781 153.219 94.5743 159.643C89.0806 160.94 83.5321 161.423 78.2214 161.159L83.3145 188.515C83.5238 189.984 82.6249 191.438 81.3169 191.747ZM68.3208 107.068L73.3758 134.848C76.5627 135.475 80.4416 135.525 83.9733 134.691C98.3616 131.293 95.0529 117.312 94.8364 116.397C92.6718 107.251 83.8316 102.578 74.1521 104.863C72.3209 105.296 70.2899 106.051 68.3208 107.068Z" fill="#38D4AF"/>
<mask id="mask0_76_64" style="mask-type:alpha" maskUnits="userSpaceOnUse" x="30" y="70" width="196" height="127">
<path d="M187.522 191.106L157.656 188.811L157.376 188.775C155.557 188.54 154.357 186.822 154.574 185.144L160.706 104.784L137.594 103.078C135.635 102.824 134.136 101.21 134.372 99.3925L136.459 73.3694L136.495 73.0898C136.712 71.4124 138.292 70.1953 140.13 70.2905L222.273 76.4962C224.092 76.7312 225.73 78.3641 225.477 80.3211L223.425 106.065C223.19 107.882 221.574 109.378 219.597 109.265L197.342 107.527L191.192 188.027L191.174 188.167C190.939 189.984 189.219 191.183 187.522 191.106Z" fill="black"/>
<path d="M81.3169 191.747L81.0553 191.808L53.2465 196.857C51.6459 197.097 50.3212 196.168 49.9501 194.6L30.8529 89.9771C30.5436 88.6704 31.4426 87.2165 32.8814 86.8767L33.143 86.8149L57.3583 82.339C62.1884 79.4049 67.204 77.2548 72.3054 76.0503C96.5039 70.3366 122.585 83.08 128.553 108.298C134.273 132.472 121.781 153.219 94.5743 159.643C89.0806 160.94 83.5321 161.423 78.2214 161.159L83.3145 188.515C83.5238 189.984 82.6249 191.438 81.3169 191.747ZM68.3208 107.068L73.3758 134.848C76.5627 135.475 80.4416 135.525 83.9733 134.691C98.3616 131.293 95.0529 117.312 94.8364 116.397C92.6718 107.251 83.8316 102.578 74.1521 104.863C72.3209 105.296 70.2899 106.051 68.3208 107.068Z" fill="black"/>
</mask>
<g mask="url(#mask0_76_64)">
<path d="M65.7923 134.507L33.3435 147.016C15.8008 153.779 5.33582 171.846 8.19824 190.428L8.57627 192.883C11.6032 212.532 28.6027 226.977 48.4835 226.791L206.747 225.313C225.62 225.137 241.802 211.793 245.569 193.299L246.259 189.909C249.53 173.851 242.676 157.423 228.962 148.451L208.601 135.131C201.202 130.291 192.407 128.038 183.592 128.726L131.44 132.794L80.9393 131.836C75.7651 131.738 70.621 132.645 65.7923 134.507Z" fill="#41AED9"/>
<path d="M65.2493 155.482L32.8006 167.992C15.2579 174.755 4.79285 192.822 7.65527 211.404L8.03331 213.858C11.0602 233.508 28.0598 247.952 47.9405 247.766L206.204 246.289C225.077 246.113 241.259 232.768 245.026 214.274L245.716 210.885C248.987 194.827 242.133 178.398 228.419 169.427L208.058 156.107C200.659 151.266 191.864 149.014 183.049 149.701L130.897 153.77L80.3963 152.812C75.2221 152.714 70.078 153.621 65.2493 155.482Z" fill="#D380F1"/>
<path d="M66.796 170.085L34.3473 182.595C16.8045 189.358 6.33954 207.425 9.20196 226.007L9.58 228.461C12.6069 248.111 29.6064 262.555 49.4872 262.37L207.751 260.892C226.624 260.716 242.805 247.371 246.573 228.877L247.263 225.488C250.534 209.43 243.68 193.001 229.966 184.03L209.604 170.71C202.205 165.869 193.411 163.617 184.596 164.305L132.444 168.373L81.943 167.415C76.7688 167.317 71.6247 168.224 66.796 170.085Z" fill="#F1B5F1"/>
</g>
<path d="M213.771 176.685L200.495 140.761L233.548 160.157L218.696 162.494L213.771 176.685Z" stroke="#41AED9" stroke-width="4" stroke-linecap="round" stroke-linejoin="round"/>
<g clip-path="url(#clip0_76_64)">
<path d="M134.476 58.8903C136.574 71.4666 122.186 84.9404 122.186 84.9404C122.186 84.9404 104.201 76.8549 102.103 64.2787C101.387 59.9902 102.406 55.5936 104.936 52.056C107.466 48.5183 111.299 46.1295 115.592 45.415C119.885 44.7004 124.286 45.7187 127.827 48.2458C131.369 50.7729 133.76 54.6019 134.476 58.8903Z" stroke="#38D4AF" stroke-width="4" stroke-linecap="round" stroke-linejoin="round"/>
<path d="M119.189 66.9743C122.168 66.4783 124.181 63.6631 123.685 60.6864C123.188 57.7097 120.37 55.6986 117.39 56.1946C114.41 56.6906 112.397 59.5058 112.894 62.4825C113.39 65.4593 116.209 67.4703 119.189 66.9743Z" stroke="#38D4AF" stroke-width="4" stroke-linecap="round" stroke-linejoin="round"/>
</g>
<g clip-path="url(#clip1_76_64)">
<path d="M121.126 188.197L108.227 195.239L108.779 166.102L121.678 159.06M121.126 188.197L135.571 195.758M121.126 188.197L121.678 159.06M135.571 195.758L148.47 188.716L149.023 159.579L136.124 166.621M135.571 195.758L136.124 166.621M136.124 166.621L121.678 159.06" stroke="#F19EDC" stroke-width="4" stroke-linecap="round" stroke-linejoin="round"/>
</g>
<defs>
<clipPath id="clip0_76_64">
<rect width="43.758" height="43.7147" fill="white" transform="matrix(0.986429 -0.164186 0.164563 0.986367 93.7098 47.2107)"/>
</clipPath>
<clipPath id="clip1_76_64">
<rect width="43.7596" height="43.7131" fill="white" transform="translate(107.164 155.141) rotate(1.08665)"/>
</clipPath>
</defs>
</svg>
