<svg width="570" height="256" viewBox="0 0 570 256" fill="none" xmlns="http://www.w3.org/2000/svg">
<path d="M81.5186 208.725L72.1119 221.821L58.8079 192.717L68.2147 179.621M81.5186 208.725L99.3963 209.348M81.5186 208.725L68.2147 179.621M99.3963 209.348L108.803 196.252L95.499 167.149L86.0923 180.245M99.3963 209.348L86.0923 180.245M86.0923 180.245L68.2147 179.621M448 116.679V126.679C448 128.271 448.632 129.797 449.757 130.922C450.883 132.047 452.409 132.679 454 132.679C455.591 132.679 457.117 132.047 458.243 130.922C459.368 129.797 460 128.271 460 126.679V124.679C460 120.165 458.472 115.784 455.667 112.248C452.861 108.712 448.941 106.23 444.545 105.204C440.149 104.178 435.536 104.669 431.455 106.598C427.374 108.527 424.065 111.779 422.066 115.827C420.068 119.874 419.498 124.479 420.448 128.892C421.399 133.304 423.814 137.266 427.301 140.132C430.789 142.998 435.143 144.6 439.656 144.678C444.169 144.755 448.576 143.304 452.16 140.559M507.414 210.45L489.418 203.952C488.358 203.501 487.774 202.419 488.225 201.359L505.27 154.362C505.72 153.302 506.891 152.756 507.863 153.169L518.338 156.993C523.747 157.518 528.642 158.763 533.06 160.64C536.064 161.916 538.83 163.509 541.306 165.291C542.481 166.207 542.711 167.139 542.26 168.2C542.11 168.553 541.872 168.869 541.596 169.273L533.741 180.643C532.95 181.767 531.804 182.01 530.743 181.56C530.478 181.447 530.162 181.209 529.847 180.97C528.621 179.928 527.231 179.025 525.729 178.387C524.492 177.861 523.18 177.512 521.616 177.265L510.007 209.257L509.932 209.433C509.519 210.405 508.386 210.863 507.414 210.45ZM479.251 197.263L478.151 197.607C457.359 204.132 442.462 193.211 438.093 179.288C433.983 166.19 438.924 149.547 459.808 142.994C482.524 135.867 489.883 155.793 490.831 158.816C492.153 163.029 491.505 167.056 486.676 170.584C482.831 173.4 476.369 176.535 471.663 178.212C470.198 178.672 469.538 178.175 468.827 177.191C466.779 174.513 463.171 169.105 463.056 168.739C462.74 167.731 463.329 167.043 464.434 166.395C468.852 163.801 469.435 163.417 469.033 162.134C468.774 161.31 466.114 158.925 462.267 160.132C457.871 161.512 455.414 166.508 457.196 172.187C459.236 178.691 466.299 184.524 477.748 180.931C478.389 180.73 479.122 180.5 479.735 180.207L479.918 180.15C481.2 179.747 483.016 180.083 483.505 181.64C483.792 182.556 483.365 189.532 482.968 193.078C482.695 194.773 481.907 196.429 479.251 197.263ZM437.407 204.257L426.936 209.697C425.724 210.324 424.725 210.408 423.88 210.229C423.504 210.149 406.803 203.283 410.833 184.216C413.235 172.851 408.829 167.701 402.067 166.271L401.597 166.172L394.39 200.267C394.152 201.394 393.128 202.061 392.095 201.842L373.31 197.871C372.183 197.633 371.516 196.609 371.754 195.482L387.995 118.652C388.213 117.619 389.257 116.858 390.384 117.096L409.169 121.067C410.202 121.285 410.849 122.403 410.631 123.436L405.469 147.857C406.616 148.001 407.743 148.239 408.776 148.458C426.434 152.19 438.299 165.688 434.65 184.345C433.453 190.47 433.681 195.424 437.509 200.06C437.974 200.648 438.808 201.806 438.59 202.839C438.491 203.309 438.184 203.833 437.407 204.257ZM369.418 185.899L366.599 198.677C366.159 200.607 365.475 201.702 364.057 201.952C363.773 202.002 363.489 202.051 363.189 202.007C347.434 201.661 340.675 194.273 335.991 170.437L328.833 171.307C327.777 171.395 326.759 170.6 326.576 169.56L324.948 153.665C324.859 152.609 325.56 151.608 326.695 151.408L332.812 150.721C332.369 147.095 331.875 143.185 331.443 139.07C331.338 137.919 331.211 136.089 333.669 135.656L334.047 135.59L352.066 133.295C353.69 133.106 354.613 133.918 354.896 135.526C355.406 139.53 355.855 143.74 356.27 147.761L362.861 146.99C363.901 146.807 364.918 147.603 365.118 148.738L366.746 164.632C366.818 165.594 366.212 166.578 365.172 166.761L364.983 166.794L358.693 167.609C360.207 176.213 362.49 182.537 366.967 183.601C368.09 183.891 369.291 184.069 369.474 185.109C369.508 185.298 369.463 185.598 369.418 185.899ZM292.107 200.665L291.007 200.324C270.192 193.872 264.144 176.419 268.464 162.481C272.529 149.369 286.053 138.485 306.96 144.965C329.701 152.014 324.428 172.591 323.49 175.617C322.183 179.835 319.36 182.78 313.382 182.937C308.617 183.068 301.519 181.974 296.694 180.679C295.227 180.224 294.968 179.44 294.942 178.226C294.779 174.859 294.885 168.359 294.998 167.992C295.311 166.983 296.187 166.752 297.464 166.847C302.573 167.224 303.272 167.24 303.67 165.956C303.926 165.131 303.093 161.657 299.242 160.463C294.84 159.099 289.979 161.813 288.217 167.498C286.199 174.009 288.693 182.822 300.155 186.375C300.797 186.574 301.53 186.801 302.201 186.909L302.384 186.965C303.668 187.363 304.971 188.672 304.488 190.231C304.204 191.148 299.887 196.644 297.545 199.335C296.357 200.575 294.767 201.489 292.107 200.665ZM211.12 217.519L214.192 208.687C214.576 207.439 215.632 206.767 216.688 206.767C216.88 206.767 217.072 206.863 217.264 206.863C219.856 207.535 222.16 207.823 224.272 207.823C232.336 207.823 237.04 203.215 239.344 195.535C236.368 196.495 233.104 197.071 230.032 197.071C215.344 197.071 202 185.263 202 167.407C202 155.791 208.912 141.679 229.168 141.679C233.776 141.679 238.192 142.543 241.936 144.175C242.224 143.119 243.088 142.927 243.952 142.927H244.432C244.432 142.927 260.176 143.983 262.384 144.079C263.92 144.175 264.88 145.423 264.88 146.863C264.688 163.759 264.592 181.231 261.808 195.631C257.872 215.983 243.184 223.951 228.208 223.951C222.64 223.951 217.072 222.895 211.984 220.879C211.12 220.591 210.928 219.823 210.928 219.055C210.928 218.479 211.024 217.903 211.12 217.519ZM241.168 177.967L241.648 177.679C241.84 173.839 241.936 169.615 241.936 165.295C241.552 160.783 237.808 158.383 233.68 158.383C227.632 158.383 224.272 163.279 224.272 168.655C224.272 172.399 225.808 180.271 234.256 180.271C236.56 180.271 239.632 179.215 241.168 177.967ZM201 178.139C201 193.88 185.062 202.679 173.632 202.679C160.511 202.679 149 193.154 149 178.946C149 162.317 161.396 153.679 175.563 153.679C193.353 153.679 201 167.645 201 178.139ZM175.563 187.261C181.279 187.261 183.854 182.579 183.854 177.977C183.854 176.444 183.533 168.613 175.322 168.613C168.56 168.613 166.629 174.345 166.629 177.977C166.629 183.548 170.975 187.261 175.563 187.261ZM137.651 215.792L117.355 217.637L117.163 217.644C115.916 217.692 114.916 216.674 114.871 215.523C112.916 194.176 111.821 182.208 109.866 160.86L94.1674 162.335C92.8244 162.387 91.6361 161.472 91.5876 160.225L90.0351 142.512L90.0276 142.32C89.9829 141.169 90.905 140.173 92.1483 140.028L147.959 134.883C149.206 134.834 150.49 135.745 150.542 137.088L152.087 154.609C152.136 155.856 151.221 157.045 149.882 157.193L134.755 158.549L139.764 213.308L139.767 213.404C139.816 214.651 138.798 215.651 137.651 215.792ZM311.542 110.603L301.255 116.383C300.064 117.05 299.069 117.166 298.218 117.015C297.84 116.948 280.922 110.633 284.325 91.4444C286.353 80.0068 281.78 75.0036 274.975 73.7967L274.502 73.7129L268.418 108.026C268.216 109.16 267.215 109.86 266.175 109.675L247.27 106.323C246.136 106.122 245.436 105.12 245.637 103.986L259.348 26.6643C259.532 25.6246 260.551 24.8302 261.685 25.0313L280.59 28.3836C281.63 28.568 282.313 29.6641 282.128 30.7039L277.77 55.2805C278.922 55.3871 280.056 55.5882 281.096 55.7726C298.866 58.9237 311.168 72.0248 308.133 90.7911C307.138 96.952 307.529 101.896 311.507 106.404C311.99 106.977 312.862 108.107 312.678 109.147C312.594 109.619 312.304 110.153 311.542 110.603ZM240.36 104.359L235.368 116.455C234.6 118.279 233.736 119.239 232.296 119.239C232.008 119.239 231.72 119.239 231.432 119.143C215.976 116.071 210.6 107.623 210.12 83.3354L202.92 82.9514C201.864 82.8554 201 81.8954 201 80.8394L202.152 64.9034C202.248 63.8474 203.112 62.9834 204.264 62.9834L210.408 63.3674C210.6 59.7194 210.792 55.7834 211.08 51.6554C211.176 50.5034 211.368 48.6794 213.864 48.6794H214.248L232.392 49.5434C234.024 49.6394 234.792 50.5994 234.792 52.2314C234.6 56.2634 234.312 60.4874 234.024 64.5194L240.648 64.9034C241.704 64.9034 242.568 65.8634 242.568 67.0154L241.416 82.9514C241.32 83.9114 240.552 84.7754 239.496 84.7754H239.304L232.968 84.4874C232.968 93.2234 234.12 99.8474 238.344 101.671C239.4 102.151 240.552 102.535 240.552 103.591C240.552 103.783 240.456 104.071 240.36 104.359ZM200.432 111.743L194.48 123.359C193.616 124.991 192.656 125.855 191.408 125.855C190.448 125.855 183.728 124.319 178.928 119.807C173.936 122.399 168.752 123.551 163.856 123.551C147.824 123.551 134 111.263 134 95.8074C134 84.2874 142.16 67.6794 161.168 67.6794C165.968 67.6794 170.672 68.7354 174.416 70.3674C174.992 69.6954 175.856 69.4074 177.008 69.4074H177.488L194.096 70.8474C196.592 71.0394 197.264 72.2874 197.264 73.4394V73.9194C195.92 82.6554 194.576 91.0074 194.576 97.3434C194.576 103.103 195.632 107.231 198.704 108.863C199.664 109.343 200.72 109.919 200.72 110.879C200.72 111.071 200.624 111.359 200.432 111.743ZM172.304 104.735C172.016 102.239 171.824 99.5514 171.824 96.5754C171.824 94.0794 171.92 91.4874 172.112 88.6074C170.96 86.6874 168.368 85.3434 165.584 85.3434C159.536 85.3434 156.176 91.1994 156.176 96.0954C156.176 101.471 159.92 106.079 166.16 106.079C167.984 106.079 170.096 105.695 172.304 104.735ZM97.1228 128.844L96.9314 128.897L76.5293 133.355C75.353 133.572 74.3354 132.874 73.9993 131.662L55.7635 50.6243C55.4834 49.6135 56.0924 48.4652 57.145 48.1734L57.3364 48.1204L75.0989 44.1769C78.5622 41.8021 82.1935 40.0338 85.9253 38.9995C103.627 34.0933 123.444 43.5116 128.851 63.019C134.034 81.7178 125.591 98.0979 105.688 103.614C101.67 104.728 97.5784 105.209 93.6342 105.105L98.4762 126.292C98.6887 127.431 98.0796 128.579 97.1228 128.844ZM84.186 63.2084L89.0164 84.7258C91.4016 85.1531 94.2769 85.118 96.8604 84.402C107.386 81.4848 104.388 70.6698 104.192 69.9623C102.231 62.8871 95.5002 59.4195 88.4195 61.382C87.0799 61.7533 85.605 62.3798 84.186 63.2084ZM351.545 114.315C346.152 127.234 324.918 131.374 324.918 131.374C324.918 131.374 312.93 113.367 318.323 100.447C320.162 96.0417 323.676 92.5471 328.091 90.7323C332.507 88.9175 337.462 88.9311 341.868 90.77C346.273 92.609 349.768 96.1227 351.582 100.538C353.397 104.954 353.384 109.909 351.545 114.315ZM340.471 109.692C339.194 112.75 335.681 114.194 332.623 112.918C329.565 111.641 328.12 108.128 329.397 105.07C330.673 102.012 334.187 100.567 337.245 101.844C340.303 103.12 341.747 106.634 340.471 109.692ZM448 124.679C448 129.098 444.418 132.679 440 132.679C435.582 132.679 432 129.098 432 124.679C432 120.261 435.582 116.679 440 116.679C444.418 116.679 448 120.261 448 124.679ZM343 206.679C343 217.725 334.046 226.679 323 226.679C311.954 226.679 303 217.725 303 206.679C303 195.634 311.954 186.679 323 186.679C334.046 186.679 343 195.634 343 206.679ZM331.48 198.199L327.24 210.919L314.52 215.159L318.76 202.439L331.48 198.199ZM25.4807 133.185L60.0674 109.274L48.4533 149.686L41.9171 134.544L25.4807 133.185Z" stroke="black" stroke-width="40" stroke-linejoin="round"/>
<path d="M118.5 92.1793L66.5 49.6793V103.179L118.5 92.1793Z" fill="black"/>
<path d="M197 71.6793H157L151.5 116.679L197 124.179V71.6793Z" fill="black"/>
<path d="M269 151.179L217.5 145.179L151.5 151.179L162.5 202.179H269V151.179Z" fill="black"/>
<path d="M464.5 108.179L435 97.1793L415.5 151.179L464.5 163.179V108.179Z" fill="black"/>
<path d="M85 160L71.5 139.5L58 171.5L85 160Z" fill="black"/>
<path d="M50 179.5L65 136.5L50 107L95 69.5L204 132L197 210H177L135 224L100 219.5L71.5 231L50 210V179.5Z" fill="black"/>
<path d="M118.5 92.1793L66.5 49.6793V103.179L118.5 92.1793Z" stroke="black"/>
<path d="M197 71.6793H157L151.5 116.679L197 124.179V71.6793Z" stroke="black"/>
<path d="M269 151.179L217.5 145.179L151.5 151.179L162.5 202.179H269V151.179Z" stroke="black"/>
<path d="M464.5 108.179L435 97.1793L415.5 151.179L464.5 163.179V108.179Z" stroke="black"/>
<path d="M85 160L71.5 139.5L58 171.5L85 160Z" stroke="black"/>
<path d="M50 179.5L65 136.5L50 107L95 69.5L204 132L197 210H177L135 224L100 219.5L71.5 231L50 210V179.5Z" stroke="black"/>
<path d="M507.414 210.45L489.418 203.952C488.358 203.501 487.774 202.419 488.225 201.359L505.27 154.362C505.72 153.302 506.891 152.756 507.863 153.169L518.338 156.993C523.747 157.518 528.642 158.763 533.06 160.64C536.064 161.916 538.83 163.509 541.306 165.291C542.481 166.207 542.711 167.139 542.26 168.2C542.11 168.553 541.872 168.869 541.596 169.273L533.741 180.643C532.95 181.767 531.804 182.01 530.743 181.56C530.478 181.447 530.162 181.209 529.847 180.97C528.621 179.928 527.231 179.025 525.729 178.387C524.492 177.861 523.18 177.512 521.616 177.265L510.007 209.257L509.932 209.433C509.519 210.405 508.386 210.863 507.414 210.45Z" fill="#38D4AF"/>
<path d="M479.251 197.263L478.151 197.607C457.359 204.132 442.462 193.211 438.093 179.288C433.983 166.19 438.924 149.547 459.808 142.994C482.524 135.867 489.883 155.793 490.831 158.816C492.153 163.029 491.505 167.056 486.676 170.584C482.831 173.4 476.369 176.535 471.663 178.212C470.198 178.672 469.538 178.175 468.827 177.191C466.779 174.513 463.171 169.105 463.056 168.739C462.74 167.731 463.329 167.043 464.434 166.395C468.852 163.801 469.435 163.417 469.033 162.134C468.774 161.31 466.114 158.925 462.267 160.132C457.871 161.512 455.414 166.508 457.196 172.187C459.236 178.691 466.299 184.524 477.748 180.931C478.389 180.73 479.122 180.5 479.735 180.207L479.918 180.15C481.2 179.747 483.016 180.083 483.505 181.64C483.792 182.556 483.365 189.532 482.968 193.078C482.695 194.773 481.907 196.429 479.251 197.263Z" fill="#38D4AF"/>
<path d="M437.407 204.257L426.936 209.697C425.724 210.324 424.725 210.408 423.88 210.229C423.504 210.149 406.803 203.283 410.833 184.216C413.235 172.851 408.829 167.701 402.067 166.271L401.597 166.172L394.39 200.267C394.152 201.394 393.128 202.061 392.095 201.842L373.31 197.871C372.183 197.633 371.516 196.609 371.754 195.482L387.995 118.652C388.213 117.619 389.257 116.858 390.384 117.096L409.169 121.067C410.202 121.285 410.849 122.403 410.631 123.436L405.469 147.857C406.616 148.001 407.743 148.239 408.776 148.458C426.434 152.19 438.299 165.688 434.65 184.345C433.453 190.47 433.681 195.424 437.509 200.06C437.974 200.648 438.808 201.806 438.59 202.839C438.491 203.309 438.184 203.833 437.407 204.257Z" fill="#38D4AF"/>
<path d="M369.418 185.899L366.599 198.677C366.159 200.607 365.475 201.702 364.057 201.952C363.773 202.002 363.489 202.051 363.189 202.007C347.434 201.661 340.675 194.273 335.991 170.437L328.833 171.307C327.777 171.395 326.759 170.6 326.576 169.56L324.948 153.665C324.859 152.609 325.56 151.608 326.695 151.408L332.812 150.721C332.369 147.095 331.875 143.185 331.443 139.07C331.338 137.919 331.211 136.089 333.669 135.656L334.047 135.59L352.066 133.295C353.69 133.106 354.613 133.918 354.896 135.526C355.406 139.53 355.855 143.74 356.27 147.761L362.861 146.99C363.901 146.807 364.918 147.603 365.118 148.738L366.746 164.632C366.818 165.594 366.212 166.578 365.172 166.761L364.983 166.794L358.693 167.609C360.207 176.213 362.49 182.537 366.967 183.601C368.09 183.891 369.291 184.069 369.474 185.109C369.508 185.298 369.463 185.598 369.418 185.899Z" fill="#38D4AF"/>
<path d="M292.107 200.665L291.007 200.324C270.192 193.872 264.144 176.419 268.464 162.481C272.529 149.369 286.053 138.485 306.96 144.965C329.701 152.014 324.428 172.591 323.49 175.617C322.183 179.835 319.36 182.78 313.382 182.937C308.617 183.068 301.519 181.974 296.694 180.679C295.227 180.224 294.968 179.44 294.942 178.226C294.779 174.859 294.885 168.359 294.998 167.992C295.311 166.983 296.187 166.752 297.464 166.847C302.573 167.224 303.272 167.24 303.67 165.956C303.926 165.131 303.093 161.657 299.242 160.463C294.84 159.099 289.979 161.813 288.217 167.498C286.199 174.009 288.693 182.822 300.155 186.375C300.797 186.574 301.53 186.801 302.201 186.909L302.384 186.965C303.668 187.363 304.971 188.672 304.488 190.231C304.204 191.148 299.887 196.644 297.545 199.335C296.357 200.575 294.767 201.489 292.107 200.665Z" fill="#38D4AF"/>
<path d="M211.12 217.519L214.192 208.687C214.576 207.439 215.632 206.767 216.688 206.767C216.88 206.767 217.072 206.863 217.264 206.863C219.856 207.535 222.16 207.823 224.272 207.823C232.336 207.823 237.04 203.215 239.344 195.535C236.368 196.495 233.104 197.071 230.032 197.071C215.344 197.071 202 185.263 202 167.407C202 155.791 208.912 141.679 229.168 141.679C233.776 141.679 238.192 142.543 241.936 144.175C242.224 143.119 243.088 142.927 243.952 142.927H244.432C244.432 142.927 260.176 143.983 262.384 144.079C263.92 144.175 264.88 145.423 264.88 146.863C264.688 163.759 264.592 181.231 261.808 195.631C257.872 215.983 243.184 223.951 228.208 223.951C222.64 223.951 217.072 222.895 211.984 220.879C211.12 220.591 210.928 219.823 210.928 219.055C210.928 218.479 211.024 217.903 211.12 217.519ZM241.168 177.967L241.648 177.679C241.84 173.839 241.936 169.615 241.936 165.295C241.552 160.783 237.808 158.383 233.68 158.383C227.632 158.383 224.272 163.279 224.272 168.655C224.272 172.399 225.808 180.271 234.256 180.271C236.56 180.271 239.632 179.215 241.168 177.967Z" fill="#38D4AF"/>
<path d="M201 178.139C201 193.88 185.062 202.679 173.632 202.679C160.511 202.679 149 193.154 149 178.946C149 162.317 161.396 153.679 175.563 153.679C193.353 153.679 201 167.645 201 178.139ZM175.563 187.261C181.279 187.261 183.855 182.579 183.855 177.977C183.855 176.444 183.533 168.613 175.322 168.613C168.56 168.613 166.629 174.345 166.629 177.977C166.629 183.548 170.975 187.261 175.563 187.261Z" fill="#38D4AF"/>
<path d="M137.651 215.792L117.355 217.637L117.163 217.644C115.916 217.692 114.916 216.674 114.871 215.523L109.866 160.86L94.1674 162.335C92.8245 162.387 91.6361 161.472 91.5876 160.225L90.0351 142.512L90.0277 142.32C89.983 141.169 90.905 140.173 92.1483 140.028L147.959 134.883C149.206 134.834 150.49 135.745 150.542 137.088L152.087 154.609C152.136 155.856 151.221 157.045 149.882 157.193L134.755 158.549L139.764 213.308L139.767 213.404C139.816 214.651 138.798 215.651 137.651 215.792Z" fill="#38D4AF"/>
<path d="M311.542 110.603L301.255 116.383C300.064 117.05 299.069 117.166 298.218 117.015C297.84 116.948 280.922 110.633 284.325 91.4444C286.353 80.0068 281.78 75.0036 274.975 73.7967L274.502 73.7129L268.418 108.026C268.216 109.16 267.215 109.86 266.175 109.675L247.27 106.323C246.136 106.122 245.436 105.12 245.637 103.986L259.348 26.6643C259.532 25.6246 260.551 24.8302 261.685 25.0313L280.59 28.3836C281.63 28.568 282.313 29.6641 282.128 30.7039L277.77 55.2805C278.922 55.3871 280.056 55.5882 281.096 55.7726C298.866 58.9237 311.168 72.0248 308.133 90.7911C307.138 96.952 307.529 101.896 311.507 106.404C311.99 106.977 312.862 108.107 312.678 109.147C312.594 109.619 312.304 110.153 311.542 110.603Z" fill="#38D4AF"/>
<path d="M240.36 104.359L235.368 116.455C234.6 118.279 233.736 119.239 232.296 119.239C232.008 119.239 231.72 119.239 231.432 119.143C215.976 116.071 210.6 107.623 210.12 83.3354L202.92 82.9514C201.864 82.8554 201 81.8954 201 80.8394L202.152 64.9034C202.248 63.8474 203.112 62.9834 204.264 62.9834L210.408 63.3674C210.6 59.7194 210.792 55.7834 211.08 51.6554C211.176 50.5034 211.368 48.6794 213.864 48.6794H214.248L232.392 49.5434C234.024 49.6394 234.792 50.5994 234.792 52.2314C234.6 56.2634 234.312 60.4874 234.024 64.5194L240.648 64.9034C241.704 64.9034 242.568 65.8634 242.568 67.0154L241.416 82.9514C241.32 83.9114 240.552 84.7754 239.496 84.7754H239.304L232.968 84.4874C232.968 93.2234 234.12 99.8474 238.344 101.671C239.4 102.151 240.552 102.535 240.552 103.591C240.552 103.783 240.456 104.071 240.36 104.359Z" fill="#38D4AF"/>
<path d="M200.432 111.743L194.48 123.359C193.616 124.991 192.656 125.855 191.408 125.855C190.448 125.855 183.728 124.319 178.928 119.807C173.936 122.399 168.752 123.551 163.856 123.551C147.824 123.551 134 111.263 134 95.8074C134 84.2874 142.16 67.6794 161.168 67.6794C165.968 67.6794 170.672 68.7354 174.416 70.3674C174.992 69.6954 175.856 69.4074 177.008 69.4074H177.488L194.096 70.8474C196.592 71.0394 197.264 72.2874 197.264 73.4394V73.9194C195.92 82.6554 194.576 91.0074 194.576 97.3434C194.576 103.103 195.632 107.231 198.704 108.863C199.664 109.343 200.72 109.919 200.72 110.879C200.72 111.071 200.624 111.359 200.432 111.743ZM172.304 104.735C172.016 102.239 171.824 99.5514 171.824 96.5754C171.824 94.0794 171.92 91.4874 172.112 88.6074C170.96 86.6874 168.368 85.3434 165.584 85.3434C159.536 85.3434 156.176 91.1994 156.176 96.0954C156.176 101.471 159.92 106.079 166.16 106.079C167.984 106.079 170.096 105.695 172.304 104.735Z" fill="#38D4AF"/>
<path d="M97.1228 128.844L96.9314 128.897L76.5293 133.355C75.353 133.572 74.3354 132.874 73.9993 131.662L55.7635 50.6243C55.4834 49.6135 56.0925 48.4652 57.145 48.1734L57.3364 48.1204L75.099 44.1769C78.5622 41.8021 82.1935 40.0338 85.9253 38.9995C103.627 34.0933 123.444 43.5116 128.851 63.019C134.034 81.7178 125.591 98.0979 105.688 103.614C101.67 104.728 97.5784 105.209 93.6342 105.105L98.4762 126.292C98.6887 127.431 98.0797 128.579 97.1228 128.844ZM84.186 63.2084L89.0164 84.7258C91.4016 85.1531 94.2769 85.118 96.8604 84.402C107.386 81.4848 104.388 70.6698 104.192 69.9623C102.231 62.8871 95.5002 59.4195 88.4195 61.382C87.0799 61.7533 85.605 62.3798 84.186 63.2084Z" fill="#38D4AF"/>
<mask id="mask0_76_41" style="mask-type:alpha" maskUnits="userSpaceOnUse" x="55" y="25" width="488" height="199">
<path d="M507.414 210.45L489.418 203.952C488.358 203.501 487.774 202.419 488.225 201.359L505.27 154.362C505.72 153.302 506.891 152.756 507.863 153.169L518.338 156.993C523.747 157.518 528.642 158.763 533.06 160.64C536.064 161.916 538.83 163.509 541.306 165.291C542.481 166.207 542.711 167.139 542.26 168.2C542.11 168.553 541.872 168.869 541.596 169.273L533.741 180.643C532.95 181.767 531.804 182.01 530.743 181.56C530.478 181.447 530.162 181.209 529.847 180.97C528.621 179.928 527.231 179.025 525.729 178.387C524.492 177.861 523.18 177.512 521.616 177.265L510.007 209.257L509.932 209.433C509.519 210.405 508.386 210.863 507.414 210.45Z" fill="black"/>
<path d="M479.251 197.263L478.151 197.607C457.359 204.132 442.462 193.211 438.093 179.288C433.983 166.19 438.924 149.547 459.808 142.994C482.524 135.867 489.883 155.793 490.831 158.816C492.153 163.029 491.505 167.056 486.676 170.584C482.831 173.4 476.369 176.535 471.663 178.212C470.198 178.672 469.538 178.175 468.827 177.191C466.779 174.513 463.171 169.105 463.056 168.739C462.74 167.731 463.329 167.043 464.434 166.395C468.852 163.801 469.435 163.417 469.033 162.134C468.774 161.31 466.114 158.925 462.267 160.132C457.871 161.512 455.414 166.508 457.196 172.187C459.236 178.691 466.299 184.524 477.748 180.931C478.389 180.73 479.122 180.5 479.735 180.207L479.918 180.15C481.2 179.747 483.016 180.083 483.505 181.64C483.792 182.556 483.365 189.532 482.968 193.078C482.695 194.773 481.907 196.429 479.251 197.263Z" fill="black"/>
<path d="M437.407 204.257L426.936 209.697C425.724 210.324 424.725 210.408 423.88 210.229C423.504 210.149 406.803 203.283 410.833 184.216C413.235 172.851 408.829 167.701 402.067 166.271L401.597 166.172L394.39 200.267C394.152 201.394 393.128 202.061 392.095 201.842L373.31 197.871C372.183 197.633 371.516 196.609 371.754 195.482L387.995 118.652C388.213 117.619 389.257 116.858 390.384 117.096L409.169 121.067C410.202 121.285 410.849 122.403 410.631 123.436L405.469 147.857C406.616 148.001 407.743 148.239 408.776 148.458C426.434 152.19 438.299 165.688 434.65 184.345C433.453 190.47 433.681 195.424 437.509 200.06C437.974 200.648 438.808 201.806 438.59 202.839C438.491 203.309 438.184 203.833 437.407 204.257Z" fill="black"/>
<path d="M369.418 185.899L366.599 198.677C366.159 200.607 365.475 201.702 364.057 201.952C363.773 202.002 363.489 202.051 363.189 202.007C347.434 201.661 340.675 194.273 335.991 170.437L328.833 171.307C327.777 171.395 326.759 170.6 326.576 169.56L324.948 153.665C324.859 152.609 325.56 151.608 326.695 151.408L332.812 150.721C332.369 147.095 331.875 143.185 331.443 139.07C331.338 137.919 331.211 136.089 333.669 135.656L334.047 135.59L352.066 133.295C353.69 133.106 354.613 133.918 354.896 135.526C355.406 139.53 355.855 143.74 356.27 147.761L362.861 146.99C363.901 146.807 364.918 147.603 365.118 148.738L366.746 164.632C366.818 165.594 366.212 166.578 365.172 166.761L364.983 166.794L358.693 167.609C360.207 176.213 362.49 182.537 366.967 183.601C368.09 183.891 369.291 184.069 369.474 185.109C369.508 185.298 369.463 185.598 369.418 185.899Z" fill="black"/>
<path d="M292.107 200.665L291.007 200.324C270.192 193.872 264.144 176.419 268.464 162.481C272.529 149.369 286.053 138.485 306.96 144.965C329.701 152.014 324.428 172.591 323.49 175.617C322.183 179.835 319.36 182.78 313.382 182.937C308.617 183.068 301.519 181.974 296.694 180.679C295.227 180.224 294.968 179.44 294.942 178.226C294.779 174.859 294.885 168.359 294.998 167.992C295.311 166.983 296.187 166.752 297.464 166.847C302.573 167.224 303.272 167.24 303.67 165.956C303.926 165.131 303.093 161.657 299.242 160.463C294.84 159.099 289.979 161.813 288.217 167.498C286.199 174.009 288.693 182.822 300.155 186.375C300.797 186.574 301.53 186.801 302.201 186.909L302.384 186.965C303.668 187.363 304.971 188.672 304.488 190.231C304.204 191.148 299.887 196.644 297.545 199.335C296.357 200.575 294.767 201.489 292.107 200.665Z" fill="black"/>
<path d="M211.12 217.519L214.192 208.687C214.576 207.439 215.632 206.767 216.688 206.767C216.88 206.767 217.072 206.863 217.264 206.863C219.856 207.535 222.16 207.823 224.272 207.823C232.336 207.823 237.04 203.215 239.344 195.535C236.368 196.495 233.104 197.071 230.032 197.071C215.344 197.071 202 185.263 202 167.407C202 155.791 208.912 141.679 229.168 141.679C233.776 141.679 238.192 142.543 241.936 144.175C242.224 143.119 243.088 142.927 243.952 142.927H244.432C244.432 142.927 260.176 143.983 262.384 144.079C263.92 144.175 264.88 145.423 264.88 146.863C264.688 163.759 264.592 181.231 261.808 195.631C257.872 215.983 243.184 223.951 228.208 223.951C222.64 223.951 217.072 222.895 211.984 220.879C211.12 220.591 210.928 219.823 210.928 219.055C210.928 218.479 211.024 217.903 211.12 217.519ZM241.168 177.967L241.648 177.679C241.84 173.839 241.936 169.615 241.936 165.295C241.552 160.783 237.808 158.383 233.68 158.383C227.632 158.383 224.272 163.279 224.272 168.655C224.272 172.399 225.808 180.271 234.256 180.271C236.56 180.271 239.632 179.215 241.168 177.967Z" fill="black"/>
<path d="M201 178.139C201 193.88 185.062 202.679 173.632 202.679C160.511 202.679 149 193.154 149 178.946C149 162.317 161.396 153.679 175.563 153.679C193.353 153.679 201 167.645 201 178.139ZM175.563 187.261C181.279 187.261 183.855 182.579 183.855 177.977C183.855 176.444 183.533 168.613 175.322 168.613C168.56 168.613 166.629 174.345 166.629 177.977C166.629 183.548 170.975 187.261 175.563 187.261Z" fill="black"/>
<path d="M137.651 215.792L117.355 217.637L117.163 217.644C115.916 217.692 114.916 216.674 114.871 215.523L109.866 160.86L94.1674 162.335C92.8245 162.387 91.6361 161.472 91.5876 160.225L90.0351 142.512L90.0277 142.32C89.983 141.169 90.905 140.173 92.1483 140.028L147.959 134.883C149.206 134.834 150.49 135.745 150.542 137.088L152.087 154.609C152.136 155.856 151.221 157.045 149.882 157.193L134.755 158.549L139.764 213.308L139.767 213.404C139.816 214.651 138.798 215.651 137.651 215.792Z" fill="black"/>
<path d="M311.542 110.603L301.255 116.383C300.064 117.05 299.069 117.166 298.218 117.015C297.84 116.948 280.922 110.633 284.325 91.4444C286.353 80.0068 281.78 75.0036 274.975 73.7967L274.502 73.7129L268.418 108.026C268.216 109.16 267.215 109.86 266.175 109.675L247.27 106.323C246.136 106.122 245.436 105.12 245.637 103.986L259.348 26.6643C259.532 25.6246 260.551 24.8302 261.685 25.0313L280.59 28.3836C281.63 28.568 282.313 29.6641 282.128 30.7039L277.77 55.2805C278.922 55.3871 280.056 55.5882 281.096 55.7726C298.866 58.9237 311.168 72.0248 308.133 90.7911C307.138 96.952 307.529 101.896 311.507 106.404C311.99 106.977 312.862 108.107 312.678 109.147C312.594 109.619 312.304 110.153 311.542 110.603Z" fill="black"/>
<path d="M240.36 104.359L235.368 116.455C234.6 118.279 233.736 119.239 232.296 119.239C232.008 119.239 231.72 119.239 231.432 119.143C215.976 116.071 210.6 107.623 210.12 83.3354L202.92 82.9514C201.864 82.8554 201 81.8954 201 80.8394L202.152 64.9034C202.248 63.8474 203.112 62.9834 204.264 62.9834L210.408 63.3674C210.6 59.7194 210.792 55.7834 211.08 51.6554C211.176 50.5034 211.368 48.6794 213.864 48.6794H214.248L232.392 49.5434C234.024 49.6394 234.792 50.5994 234.792 52.2314C234.6 56.2634 234.312 60.4874 234.024 64.5194L240.648 64.9034C241.704 64.9034 242.568 65.8634 242.568 67.0154L241.416 82.9514C241.32 83.9114 240.552 84.7754 239.496 84.7754H239.304L232.968 84.4874C232.968 93.2234 234.12 99.8474 238.344 101.671C239.4 102.151 240.552 102.535 240.552 103.591C240.552 103.783 240.456 104.071 240.36 104.359Z" fill="black"/>
<path d="M200.432 111.743L194.48 123.359C193.616 124.991 192.656 125.855 191.408 125.855C190.448 125.855 183.728 124.319 178.928 119.807C173.936 122.399 168.752 123.551 163.856 123.551C147.824 123.551 134 111.263 134 95.8074C134 84.2874 142.16 67.6794 161.168 67.6794C165.968 67.6794 170.672 68.7354 174.416 70.3674C174.992 69.6954 175.856 69.4074 177.008 69.4074H177.488L194.096 70.8474C196.592 71.0394 197.264 72.2874 197.264 73.4394V73.9194C195.92 82.6554 194.576 91.0074 194.576 97.3434C194.576 103.103 195.632 107.231 198.704 108.863C199.664 109.343 200.72 109.919 200.72 110.879C200.72 111.071 200.624 111.359 200.432 111.743ZM172.304 104.735C172.016 102.239 171.824 99.5514 171.824 96.5754C171.824 94.0794 171.92 91.4874 172.112 88.6074C170.96 86.6874 168.368 85.3434 165.584 85.3434C159.536 85.3434 156.176 91.1994 156.176 96.0954C156.176 101.471 159.92 106.079 166.16 106.079C167.984 106.079 170.096 105.695 172.304 104.735Z" fill="black"/>
<path d="M97.1228 128.844L96.9314 128.897L76.5293 133.355C75.353 133.572 74.3354 132.874 73.9993 131.662L55.7635 50.6243C55.4834 49.6135 56.0925 48.4652 57.145 48.1734L57.3364 48.1204L75.099 44.1769C78.5622 41.8021 82.1935 40.0338 85.9253 38.9995C103.627 34.0933 123.444 43.5116 128.851 63.019C134.034 81.7178 125.591 98.0979 105.688 103.614C101.67 104.728 97.5784 105.209 93.6342 105.105L98.4762 126.292C98.6887 127.431 98.0797 128.579 97.1228 128.844ZM84.186 63.2084L89.0164 84.7258C91.4016 85.1531 94.2769 85.118 96.8604 84.402C107.386 81.4848 104.388 70.6698 104.192 69.9623C102.231 62.8871 95.5002 59.4195 88.4195 61.382C87.0799 61.7533 85.605 62.3798 84.186 63.2084Z" fill="black"/>
</mask>
<g mask="url(#mask0_76_41)">
<path d="M87.9123 107.557L56.1786 122.559C45.6897 127.517 39 138.079 39 149.681V245.717C39 262.657 53.0156 276.237 69.9466 275.702L542.954 260.77C561.192 260.194 574.696 243.606 571.561 225.63L558.707 151.935C556.492 139.236 546.413 129.372 533.669 127.431L314.245 94.0212C312.75 93.7936 311.241 93.6793 309.729 93.6793H230.599C228.87 93.6793 227.143 93.8289 225.439 94.1264L167.561 104.232C165.857 104.53 164.13 104.679 162.401 104.679H100.734C96.2997 104.679 91.9209 105.662 87.9123 107.557Z" fill="#41AED9"/>
<path d="M117.908 182.901L87.0852 199.694C76.8972 205.244 70.8229 216.172 71.4868 227.755L76.9825 323.634C77.9519 340.546 92.7216 353.301 109.594 351.799L580.972 309.823C599.147 308.204 611.68 290.871 607.521 273.104L590.471 200.265C587.534 187.714 576.906 178.442 564.072 177.234L343.096 156.435C341.591 156.294 340.077 156.266 338.568 156.353L259.568 160.881C257.841 160.98 256.126 161.228 254.442 161.622L197.236 175.024C195.552 175.418 193.837 175.666 192.11 175.765L130.544 179.294C126.117 179.548 121.802 180.78 117.908 182.901Z" fill="#D380F1"/>
<path d="M140.912 192.557L109.179 207.559C98.6897 212.517 92 223.079 92 234.681V330.717C92 347.657 106.016 361.237 122.947 360.702L595.954 345.77C614.192 345.194 627.696 328.606 624.561 310.63L611.707 236.935C609.492 224.236 599.413 214.372 586.669 212.431L367.245 179.021C365.75 178.794 364.241 178.679 362.729 178.679H283.599C281.87 178.679 280.143 178.829 278.439 179.126L220.561 189.232C218.857 189.53 217.13 189.679 215.401 189.679H153.734C149.3 189.679 144.921 190.662 140.912 192.557Z" fill="#F1B5F1"/>
</g>
<g clip-path="url(#clip0_76_41)">
<path d="M81.5186 208.724L72.1119 221.821L58.808 192.717L68.2147 179.621M81.5186 208.724L99.3963 209.348M81.5186 208.724L68.2147 179.621M99.3963 209.348L108.803 196.252L95.499 167.149L86.0923 180.245M99.3963 209.348L86.0923 180.245M86.0923 180.245L68.2147 179.621" stroke="#41AED9" stroke-width="4" stroke-linecap="round" stroke-linejoin="round"/>
</g>
<g clip-path="url(#clip1_76_41)">
<path d="M351.545 114.315C346.152 127.234 324.918 131.374 324.918 131.374C324.918 131.374 312.93 113.367 318.323 100.447C320.162 96.0416 323.676 92.5471 328.091 90.7323C332.507 88.9175 337.462 88.931 341.868 90.77C346.273 92.6089 349.768 96.1226 351.582 100.538C353.397 104.954 353.384 109.909 351.545 114.315Z" stroke="#41AED9" stroke-width="4" stroke-linecap="round" stroke-linejoin="round"/>
<path d="M332.623 112.918C335.681 114.194 339.194 112.75 340.471 109.692C341.747 106.634 340.303 103.12 337.245 101.844C334.187 100.567 330.673 102.012 329.397 105.07C328.12 108.128 329.565 111.641 332.623 112.918Z" stroke="#41AED9" stroke-width="4" stroke-linecap="round" stroke-linejoin="round"/>
</g>
<path d="M448 116.679V126.679C448 128.271 448.632 129.797 449.757 130.922C450.883 132.047 452.409 132.679 454 132.679C455.591 132.679 457.117 132.047 458.243 130.922C459.368 129.797 460 128.271 460 126.679V124.679C460 120.165 458.472 115.784 455.667 112.248C452.861 108.712 448.941 106.23 444.545 105.204C440.149 104.178 435.536 104.669 431.455 106.598C427.374 108.527 424.065 111.779 422.067 115.827C420.068 119.874 419.498 124.479 420.448 128.892C421.399 133.304 423.814 137.266 427.301 140.132C430.789 142.998 435.143 144.6 439.656 144.678C444.169 144.755 448.576 143.304 452.16 140.559M448 124.679C448 129.098 444.418 132.679 440 132.679C435.582 132.679 432 129.098 432 124.679C432 120.261 435.582 116.679 440 116.679C444.418 116.679 448 120.261 448 124.679Z" stroke="#41AED9" stroke-width="4" stroke-linecap="round" stroke-linejoin="round"/>
<path d="M323 226.679C334.046 226.679 343 217.725 343 206.679C343 195.634 334.046 186.679 323 186.679C311.954 186.679 303 195.634 303 206.679C303 217.725 311.954 226.679 323 226.679Z" stroke="#F1B5F1" stroke-width="4" stroke-linecap="round" stroke-linejoin="round"/>
<path d="M331.48 198.199L327.24 210.919L314.52 215.159L318.76 202.439L331.48 198.199Z" stroke="#F1B5F1" stroke-width="4" stroke-linecap="round" stroke-linejoin="round"/>
<g clip-path="url(#clip2_76_41)">
<path d="M25.4807 133.185L60.0674 109.274L48.4533 149.686L41.9171 134.544L25.4807 133.185Z" stroke="#38D4AF" stroke-width="4" stroke-linecap="round" stroke-linejoin="round"/>
</g>
<defs>
<clipPath id="clip0_76_41">
<rect width="48" height="48" fill="white" transform="translate(52 182.635) rotate(-24.5665)"/>
</clipPath>
<clipPath id="clip1_76_41">
<rect width="48" height="48" fill="white" transform="translate(320.49 79.6793) rotate(22.6568)"/>
</clipPath>
<clipPath id="clip2_76_41">
<rect width="48" height="48" fill="white" transform="translate(16 112.446) rotate(-9.31189)"/>
</clipPath>
</defs>
</svg>
