<svg width="263" height="261" viewBox="0 0 263 261" fill="none" xmlns="http://www.w3.org/2000/svg">
<path d="M102.302 195.127L97.571 193.283C95.0126 192.286 92.298 191.749 89.5526 191.697C87.4678 191.657 85.387 191.898 83.3662 192.412L68.0863 196.299L55.7397 198.955C53.7082 199.392 51.5884 198.872 49.99 197.544C48.7287 196.496 47.8905 195.026 47.6312 193.407L39.4731 142.472L29.6246 89.8417C29.3095 88.158 29.8019 86.424 30.9547 85.1571C31.8739 84.1471 33.1378 83.5177 34.4978 83.3928L50.6062 81.9135C54.8171 81.5269 58.8388 79.9828 62.2266 77.4522C64.3071 75.8981 66.6367 74.7089 69.1157 73.9353L69.6101 73.781C72.2696 72.9512 75.0453 72.5551 77.8308 72.6079L80.0058 72.6491L87.2978 72.7875L95.5087 72.9432C95.806 72.9488 96.1008 72.9978 96.3838 73.0885L99.4526 74.0719C101.25 74.6479 102.751 72.6119 101.669 71.0653C101.537 70.876 101.439 70.6649 101.379 70.4416L100.519 67.2016C100.02 65.3236 99.7857 63.3852 99.8225 61.4425L99.831 60.9952C99.8912 57.8211 100.647 54.6989 102.045 51.8486L102.448 51.0267C102.975 49.9515 103.635 48.9464 104.411 48.0345C106.379 45.7225 109.028 44.092 111.978 43.3759L113.662 42.9672C115.308 42.5677 116.998 42.3818 118.692 42.4139L119.077 42.4212C121.357 42.4644 123.612 42.8988 125.744 43.7054L125.923 43.7731C127.867 44.5085 129.675 45.5618 131.274 46.89L131.808 47.334C132.829 48.1819 133.723 49.1714 134.464 50.2723C135.768 52.21 136.563 54.4444 136.778 56.7701L137.144 60.747C137.186 61.2058 137.174 61.668 137.108 62.124L136.483 66.4488C136.31 67.6465 137.226 68.7248 138.436 68.7477L181.913 72.0772L219.941 74.9895C222.999 75.2237 225.344 77.8032 225.285 80.8699L224.905 100.901L224.854 103.627C224.792 106.899 222.089 109.501 218.817 109.439L212.892 109.327C207.335 108.969 202.519 113.137 202.076 118.688L201.412 127.025C200.843 134.162 204.402 140.996 210.576 144.621L235.888 159.482C236.298 159.723 236.547 160.167 236.538 160.643C236.526 161.258 236.091 161.783 235.489 161.908L227.056 163.666C222.995 164.513 219.69 167.453 218.377 171.388L216.042 178.381C215.817 179.056 215.18 179.506 214.469 179.492C213.812 179.48 213.228 179.074 212.987 178.464L209.658 170.037C206.975 163.245 197.075 164.213 195.758 171.395L193.697 186.892C193.329 189.652 191.457 191.979 188.839 192.928C187.717 193.335 186.513 193.467 185.329 193.313L154.387 189.283C151.704 189.232 149.06 189.923 146.746 191.281L143.56 193.149C138.82 195.929 133.018 196.209 128.033 193.898L127.599 193.697C123.198 191.656 118.103 191.754 113.783 193.961L112.87 194.428C109.593 196.103 105.771 196.355 102.302 195.127Z" fill="#38D4AF" stroke="#38D4AF" stroke-width="40"/>
<mask id="mask0_80_132" style="mask-type:alpha" maskUnits="userSpaceOnUse" x="9" y="22" width="248" height="198">
<path d="M102.302 195.127L97.571 193.283C95.0126 192.286 92.298 191.749 89.5526 191.697C87.4678 191.657 85.387 191.898 83.3662 192.412L68.0863 196.299L55.7397 198.955C53.7082 199.392 51.5884 198.872 49.99 197.544C48.7287 196.496 47.8905 195.026 47.6312 193.407L39.4731 142.472L29.6246 89.8417C29.3095 88.158 29.8019 86.424 30.9547 85.1571C31.8739 84.1471 33.1378 83.5177 34.4978 83.3928L50.6062 81.9135C54.8171 81.5269 58.8388 79.9828 62.2266 77.4522C64.3071 75.8981 66.6367 74.7089 69.1157 73.9353L69.6101 73.781C72.2696 72.9512 75.0453 72.5551 77.8308 72.6079L80.0058 72.6491L87.2978 72.7875L95.5087 72.9432C95.806 72.9488 96.1008 72.9978 96.3838 73.0885L99.4526 74.0719C101.25 74.6479 102.751 72.6119 101.669 71.0653C101.537 70.876 101.439 70.6649 101.379 70.4416L100.519 67.2016C100.02 65.3236 99.7857 63.3852 99.8225 61.4425L99.831 60.9952C99.8912 57.8211 100.647 54.6989 102.045 51.8486L102.448 51.0267C102.975 49.9515 103.635 48.9464 104.411 48.0345C106.379 45.7225 109.028 44.092 111.978 43.3759L113.662 42.9672C115.308 42.5677 116.998 42.3818 118.692 42.4139L119.077 42.4212C121.357 42.4644 123.612 42.8988 125.744 43.7054L125.923 43.7731C127.867 44.5085 129.675 45.5618 131.274 46.89L131.808 47.334C132.829 48.1819 133.723 49.1714 134.464 50.2723C135.768 52.21 136.563 54.4444 136.778 56.7701L137.144 60.747C137.186 61.2058 137.174 61.668 137.108 62.124L136.483 66.4488C136.31 67.6465 137.226 68.7248 138.436 68.7477L181.913 72.0772L219.941 74.9895C222.999 75.2237 225.344 77.8032 225.285 80.8699L224.905 100.901L224.854 103.627C224.792 106.899 222.089 109.501 218.817 109.439L212.892 109.327C207.335 108.969 202.519 113.137 202.076 118.688L201.412 127.025C200.843 134.162 204.402 140.996 210.576 144.621L235.888 159.482C236.298 159.723 236.547 160.167 236.538 160.643C236.526 161.258 236.091 161.783 235.489 161.908L227.056 163.666C222.995 164.513 219.69 167.453 218.377 171.388L216.042 178.381C215.817 179.056 215.18 179.506 214.469 179.492C213.812 179.48 213.228 179.074 212.987 178.464L209.658 170.037C206.975 163.245 197.075 164.213 195.758 171.395L193.697 186.892C193.329 189.652 191.457 191.979 188.839 192.928C187.717 193.335 186.513 193.467 185.329 193.313L154.387 189.283C151.704 189.232 149.06 189.923 146.746 191.281L143.56 193.149C138.82 195.929 133.018 196.209 128.033 193.898L127.599 193.697C123.198 191.656 118.103 191.754 113.783 193.961L112.87 194.428C109.593 196.103 105.771 196.355 102.302 195.127Z" fill="black" stroke="black" stroke-width="40"/>
</mask>
<g mask="url(#mask0_80_132)">
<path d="M-10 136.335V194L47.6055 179.263L108.717 183.749L202.389 160.042L227.981 170.052C244.162 176.38 261.383 163.585 259.995 146.266L263 104.94H194.875L135.565 90.0858C127.548 88.078 119.106 88.6026 111.4 91.5876L52.1138 114.551L-10 136.335Z" fill="#38BAD4"/>
<path d="M-9 118.5V163.5L48.5 152L109.5 155.5L203 137L235.382 146.902C248.731 150.984 261.924 140.137 260.5 126.25L263.5 94H195.5L133.76 81.9111C127.351 80.6561 120.732 80.9896 114.481 82.8824L53 101.5L-9 118.5Z" fill="#38BAD4" fill-opacity="0.3"/>
<path d="M-7 109.5V154.5L50.5 143L111.5 146.5L205 128L237.382 137.902C250.731 141.984 263.924 131.137 262.5 117.25L265.5 85H197.5L135.76 72.9111C129.351 71.6561 122.732 71.9896 116.481 73.8824L55 92.5L-7 109.5Z" fill="#38BAD4" fill-opacity="0.3"/>
<path d="M107.385 254.463L256.705 230.754C271.919 228.339 282.831 214.793 281.952 199.414L281.4 189.758C280.385 171.98 264.197 158.995 246.622 161.861L240.336 162.885C235.838 163.619 231.232 163.318 226.867 162.005L180.404 148.028C174.916 146.377 169.071 146.333 163.558 147.9L121 160L56.8456 169.165C55.2843 169.388 53.743 169.734 52.2361 170.199L24.7185 178.697C21.9212 179.561 19.2655 180.83 16.8357 182.463L3.26492 191.584C-5.02671 197.157 -10 206.492 -10 216.483V219.031C-10 234.785 2.18501 247.855 17.8999 248.958L100.581 254.76C102.853 254.92 105.136 254.82 107.385 254.463Z" fill="#F19EDC"/>
<path d="M106.385 235.963L255.705 212.254C270.919 209.839 281.831 196.293 280.952 180.914L280.4 171.258C279.385 153.48 263.197 140.495 245.622 143.361L239.336 144.385C234.838 145.119 230.232 144.818 225.867 143.505L179.404 129.528C173.916 127.877 168.071 127.833 162.558 129.4L120 141.5L55.8456 150.665C54.2843 150.888 52.743 151.234 51.2361 151.699L23.7185 160.197C20.9212 161.061 18.2655 162.33 15.8357 163.963L2.26492 173.084C-6.02671 178.657 -11 187.992 -11 197.983V200.531C-11 216.285 1.18501 229.355 16.8999 230.458L99.5808 236.26C101.853 236.42 104.136 236.32 106.385 235.963Z" fill="#F19EDC" fill-opacity="0.3"/>
<path d="M103.385 244.963L252.705 221.254C267.919 218.839 278.831 205.293 277.952 189.914L277.4 180.258C276.385 162.48 260.197 149.495 242.622 152.361L236.336 153.385C231.838 154.119 227.232 153.818 222.867 152.505L176.404 138.528C170.916 136.877 165.071 136.833 159.558 138.4L117 150.5L52.8456 159.665C51.2843 159.888 49.743 160.234 48.2361 160.699L20.7185 169.197C17.9212 170.061 15.2655 171.33 12.8357 172.963L-0.735082 182.084C-9.02671 187.657 -14 196.992 -14 206.983V209.531C-14 225.285 -1.81499 238.355 13.8999 239.458L96.5808 245.26C98.8529 245.42 101.136 245.32 103.385 244.963Z" fill="#F19EDC" fill-opacity="0.3"/>
<path d="M188.522 194.884L158.656 192.589L158.376 192.553C156.557 192.318 155.357 190.599 155.574 188.922L161.706 108.562L138.594 106.855C136.635 106.602 135.136 104.988 135.372 103.17L137.459 77.1472L137.495 76.8677C137.712 75.1902 139.292 73.9731 141.13 74.0684L223.273 80.2741C225.092 80.5091 226.73 82.1419 226.477 84.0989L224.425 109.842C224.19 111.66 222.574 113.156 220.597 113.043L198.342 111.305L192.192 191.805L192.174 191.945C191.939 193.762 190.219 194.961 188.522 194.884Z" fill="white"/>
<path d="M82.3169 195.524L82.0553 195.586L54.2465 200.635C52.6459 200.875 51.3212 199.946 50.9501 198.378L31.8529 93.7549C31.5436 92.4482 32.4426 90.9943 33.8814 90.6545L34.143 90.5928L58.3583 86.1168C63.1884 83.1827 68.204 81.0327 73.3054 79.8282C97.5039 74.1144 123.584 86.8578 129.553 112.076C135.273 136.249 122.781 156.997 95.5743 163.421C90.0806 164.718 84.5321 165.2 79.2214 164.937L84.3145 192.293C84.5238 193.762 83.6249 195.215 82.3169 195.524ZM69.3208 110.846L74.3758 138.625C77.5627 139.253 81.4416 139.302 84.9733 138.469C99.3616 135.071 96.0529 121.09 95.8364 120.175C93.6718 111.029 84.8316 106.356 75.1522 108.641C73.3209 109.074 71.2899 109.829 69.3208 110.846Z" fill="white"/>
</g>
<path d="M213.771 176.685L200.495 140.761L233.548 160.157L218.696 162.494L213.771 176.685Z" stroke="white" stroke-width="4" stroke-linecap="round" stroke-linejoin="round"/>
<g clip-path="url(#clip0_80_132)">
<path d="M135.766 55.8643C137.864 68.4406 123.476 81.9144 123.476 81.9144C123.476 81.9144 105.491 73.8289 103.393 61.2526C102.677 56.9642 103.697 52.5676 106.226 49.03C108.756 45.4923 112.589 43.1035 116.882 42.389C121.175 41.6744 125.576 42.6927 129.118 45.2198C132.659 47.7469 135.051 51.5759 135.766 55.8643Z" stroke="white" stroke-width="4" stroke-linecap="round" stroke-linejoin="round"/>
<path d="M120.479 63.9483C123.459 63.4523 125.472 60.6371 124.975 57.6604C124.478 54.6837 121.66 52.6726 118.68 53.1686C115.7 53.6646 113.687 56.4798 114.184 59.4565C114.681 62.4333 117.499 64.4443 120.479 63.9483Z" stroke="white" stroke-width="4" stroke-linecap="round" stroke-linejoin="round"/>
</g>
<g clip-path="url(#clip1_80_132)">
<path d="M121.126 188.197L108.227 195.239L108.779 166.102L121.678 159.06M121.126 188.197L135.571 195.758M121.126 188.197L121.678 159.06M135.571 195.758L148.47 188.716L149.023 159.579L136.124 166.621M135.571 195.758L136.124 166.621M136.124 166.621L121.678 159.06" stroke="white" stroke-width="4" stroke-linecap="round" stroke-linejoin="round"/>
</g>
<defs>
<clipPath id="clip0_80_132">
<rect width="43.758" height="43.7147" fill="white" transform="matrix(0.986429 -0.164186 0.164563 0.986367 95 44.1846)"/>
</clipPath>
<clipPath id="clip1_80_132">
<rect width="43.7596" height="43.7131" fill="white" transform="translate(107.163 155.141) rotate(1.08665)"/>
</clipPath>
</defs>
</svg>
